<svg xmlns="http://www.w3.org/2000/svg" width="33" height="33" viewBox="0 0 33 33"><defs><style>.a{fill:#ff8836;}.b{fill:#fff;}</style></defs><g transform="translate(-305 -585)"><circle class="a" cx="16.5" cy="16.5" r="16.5" transform="translate(305 585)"/><path class="b" d="M17.31,6.435,11.541.667V4.559a10.132,10.132,0,0,0,0,20.108V22.106a7.6,7.6,0,0,1,0-14.986v4.957Zm5.553,6.91a10.024,10.024,0,0,0-2.054-4.932l-1.8,1.8A7.361,7.361,0,0,1,20.3,13.345Zm-8.786,8.748v2.561a10.046,10.046,0,0,0,4.945-2.041L17.2,20.787a7.335,7.335,0,0,1-3.119,1.306Zm4.932-3.068,1.8,1.788a10.024,10.024,0,0,0,2.054-4.932H20.3A7.476,7.476,0,0,1,19.009,19.025Z" transform="translate(308.735 587.833)"/></g></svg>