<svg xmlns="http://www.w3.org/2000/svg" width="34" height="33" viewBox="0 0 34 33"><defs><style>.a{fill:#ff8836;}.b{fill:#fff;}</style></defs><g transform="translate(0.329 -0.257)"><ellipse class="a" cx="17" cy="16.5" rx="17" ry="16.5" transform="translate(-0.329 0.257)"/><path class="b" d="M7.315,20.323l-7-7a1.077,1.077,0,0,1,0-1.523l1.523-1.523a1.077,1.077,0,0,1,1.523,0l4.716,4.716,10.1-10.1a1.077,1.077,0,0,1,1.523,0l1.523,1.523a1.077,1.077,0,0,1,0,1.523L8.838,20.323A1.077,1.077,0,0,1,7.315,20.323Z" transform="translate(5.849 4.233)"/></g></svg>