<svg xmlns="http://www.w3.org/2000/svg" width="34" height="33" viewBox="0 0 34 33"><defs><style>.a{fill:#ff8836;}.b{fill:#fff;}</style></defs><g transform="translate(-243 -585)"><ellipse class="a" cx="17" cy="16.5" rx="17" ry="16.5" transform="translate(243 585)"/><path class="b" d="M6.568,10.213,4.78,8.413a10.043,10.043,0,0,0-2.067,4.932H5.274a7.524,7.524,0,0,1,1.293-3.132ZM5.274,15.881H2.713a10.024,10.024,0,0,0,2.054,4.932l1.788-1.8a7.6,7.6,0,0,1-1.281-3.132Zm1.281,6.745A10.046,10.046,0,0,0,11.5,24.667V22.093a7.5,7.5,0,0,1-3.119-1.306Zm7.48-18.067V.667L8.266,6.435l5.769,5.642V7.12a7.6,7.6,0,0,1,0,14.986v2.561a10.132,10.132,0,0,0,0-20.108Z" transform="translate(247.188 587.833)"/></g></svg>