<svg xmlns="http://www.w3.org/2000/svg" xmlns:xlink="http://www.w3.org/1999/xlink" width="69" height="34" viewBox="0 0 69 34">
  <defs>
    <clipPath id="clip-button_autoSlidesShow">
      <rect width="69" height="34"/>
    </clipPath>
  </defs>
  <g id="button_autoSlidesShow" clip-path="url(#clip-button_autoSlidesShow)">
    <rect id="사각형_1452" data-name="사각형 1452" width="69" height="34" rx="17" opacity="0.597"/>
    <path id="패스_166" data-name="패스 166" d="M20.992,12.656H16.883L16.1,15H13.609L17.844,3.625h2.172L24.273,15H21.781Zm-3.477-1.9h2.844L18.93,6.5Zm16.3-7.133v7.492a3.836,3.836,0,0,1-1.168,2.953,4.5,4.5,0,0,1-3.191,1.086A4.553,4.553,0,0,1,26.289,14.1a3.77,3.77,0,0,1-1.2-2.9V3.625h2.344v7.508a2.167,2.167,0,0,0,.535,1.629,2.054,2.054,0,0,0,1.48.512q1.977,0,2.008-2.078V3.625ZM44.3,5.523H40.813V15H38.469V5.523H35.031v-1.9H44.3ZM54.758,9.57a6.867,6.867,0,0,1-.594,2.945,4.472,4.472,0,0,1-1.7,1.953,5.021,5.021,0,0,1-5.059.008,4.515,4.515,0,0,1-1.719-1.941,6.67,6.67,0,0,1-.617-2.9V9.07a6.831,6.831,0,0,1,.605-2.957,4.508,4.508,0,0,1,1.711-1.961,5.014,5.014,0,0,1,5.055,0,4.508,4.508,0,0,1,1.711,1.961,6.811,6.811,0,0,1,.605,2.949Zm-2.375-.516a4.787,4.787,0,0,0-.641-2.719,2.263,2.263,0,0,0-3.648-.012,4.732,4.732,0,0,0-.648,2.691V9.57a4.847,4.847,0,0,0,.641,2.7,2.243,2.243,0,0,0,3.656.035,4.819,4.819,0,0,0,.641-2.7Z" transform="translate(0 8.416)" fill="#fff"/>
  </g>
</svg>
