<svg xmlns="http://www.w3.org/2000/svg" xmlns:xlink="http://www.w3.org/1999/xlink" width="34" height="34" viewBox="0 0 34 34">
  <defs>
    <clipPath id="clip-button_settings">
      <rect width="34" height="34"/>
    </clipPath>
  </defs>
  <g id="button_settings" clip-path="url(#clip-button_settings)">
    <rect id="사각형_1453" data-name="사각형 1453" width="34" height="34" rx="17" opacity="0.597"/>
    <path id="패스_167" data-name="패스 167" d="M10.557,22.086h1.7a.993.993,0,0,0,.659-.225,1.079,1.079,0,0,0,.356-.605l.469-1.992q.244-.078.483-.176t.464-.205l1.738,1.074a1.04,1.04,0,0,0,.674.171.984.984,0,0,0,.615-.3l1.191-1.191a.952.952,0,0,0,.3-.625,1.051,1.051,0,0,0-.186-.684L17.959,15.6q.107-.225.205-.454a3.88,3.88,0,0,0,.166-.474l2-.469a.984.984,0,0,0,.605-.352,1.042,1.042,0,0,0,.215-.664V11.52a1.027,1.027,0,0,0-.215-.654.984.984,0,0,0-.605-.352l-1.992-.479q-.078-.264-.171-.5t-.19-.439L19.043,7.35a1.063,1.063,0,0,0,.186-.679.977.977,0,0,0-.3-.62L17.715,4.859a1.056,1.056,0,0,0-.6-.293,1.071,1.071,0,0,0-.659.146L14.688,5.807q-.215-.107-.449-.2t-.5-.181L13.271,3.4a1.055,1.055,0,0,0-.356-.6,1.007,1.007,0,0,0-.659-.22h-1.7a1.027,1.027,0,0,0-.664.22,1.044,1.044,0,0,0-.361.6l-.469,2q-.254.088-.5.186T8.105,5.8L6.338,4.713a1.033,1.033,0,0,0-.649-.146,1.056,1.056,0,0,0-.6.293L3.877,6.051a.977.977,0,0,0-.3.62,1.063,1.063,0,0,0,.186.679L4.824,9.1q-.1.205-.19.439t-.181.5l-1.982.479a.984.984,0,0,0-.605.352,1.027,1.027,0,0,0-.215.654v1.67a1.042,1.042,0,0,0,.215.664.984.984,0,0,0,.605.352l2,.469a4.5,4.5,0,0,0,.161.474q.093.229.2.454L3.779,17.33a1,1,0,0,0-.19.684.973.973,0,0,0,.308.625L5.088,19.83a.984.984,0,0,0,.615.3,1.04,1.04,0,0,0,.674-.171l1.738-1.074q.215.107.454.205t.493.176l.469,1.992a1.067,1.067,0,0,0,.361.605A1.012,1.012,0,0,0,10.557,22.086Zm.85-6.514a3.135,3.135,0,0,1-1.636-.439,3.34,3.34,0,0,1-1.177-1.177,3.135,3.135,0,0,1-.439-1.636A3.1,3.1,0,0,1,8.594,10.7,3.34,3.34,0,0,1,9.771,9.527a3.246,3.246,0,0,1,3.262,0A3.34,3.34,0,0,1,14.209,10.7a3.1,3.1,0,0,1,.439,1.616,3.135,3.135,0,0,1-.439,1.636,3.34,3.34,0,0,1-1.177,1.177A3.117,3.117,0,0,1,11.406,15.572Z" transform="translate(5.599 4.914)" fill="#fff"/>
  </g>
</svg>
