<svg xmlns="http://www.w3.org/2000/svg" xmlns:xlink="http://www.w3.org/1999/xlink" width="93" height="34" viewBox="0 0 93 34">
  <defs>
    <clipPath id="clip-button_manualSlidesShow">
      <rect width="93" height="34"/>
    </clipPath>
  </defs>
  <g id="button_manualSlidesShow" clip-path="url(#clip-button_manualSlidesShow)">
    <rect id="사각형_1452" data-name="사각형 1452" width="93" height="34" rx="17" opacity="0.597"/>
    <path id="패스_174" data-name="패스 174" d="M17.574,3.625l2.922,8.25L23.4,3.625H26.48V15H24.129V11.891l.234-5.367L21.293,15H19.684L16.621,6.531l.234,5.359V15H14.512V3.625ZM35.09,12.656H30.98L30.2,15H27.707L31.941,3.625h2.172L38.371,15H35.879Zm-3.477-1.9h2.844L33.027,6.5ZM48.684,15H46.34L41.777,7.516V15H39.434V3.625h2.344l4.57,7.5v-7.5h2.336ZM59.34,3.625v7.492a3.836,3.836,0,0,1-1.168,2.953,4.5,4.5,0,0,1-3.191,1.086A4.553,4.553,0,0,1,51.816,14.1a3.77,3.77,0,0,1-1.2-2.9V3.625h2.344v7.508a2.167,2.167,0,0,0,.535,1.629,2.054,2.054,0,0,0,1.48.512q1.977,0,2.008-2.078V3.625Zm8.172,9.031H63.4L62.621,15H60.129L64.363,3.625h2.172L70.793,15H68.3Zm-3.477-1.9h2.844L65.449,6.5ZM74.2,13.117h4.977V15h-7.32V3.625H74.2Z" transform="translate(0 9)" fill="#fff"/>
  </g>
</svg>
