<svg xmlns="http://www.w3.org/2000/svg" xmlns:xlink="http://www.w3.org/1999/xlink" width="23" height="20" viewBox="0 0 23 20">
  <defs>
    <clipPath id="clip-button_images_videos">
      <rect width="23" height="20"/>
    </clipPath>
  </defs>
  <g id="button_images_videos" data-name="button_images&amp;videos" clip-path="url(#clip-button_images_videos)">
    <g id="그룹_254" data-name="그룹 254" transform="translate(-221.003 -94.792)">
      <path id="패스_172" data-name="패스 172" d="M238.126,98.117a2.519,2.519,0,1,0,2.519,2.519A2.519,2.519,0,0,0,238.126,98.117Z" fill="#fff"/>
      <path id="패스_173" data-name="패스 173" d="M240.718,94.792h-16.43A3.315,3.315,0,0,0,221,98.125v13.333a3.314,3.314,0,0,0,3.285,3.333h16.429a3.225,3.225,0,0,0,1.549-.394h.07l.013-.048a3.343,3.343,0,0,0,1.654-2.89V98.125A3.314,3.314,0,0,0,240.718,94.792ZM237.241,105.1l-.012-.013a.9.9,0,0,0-1.273-.006l-.019.019s-.074.059-.4.376c-.32.25-.3.31-.484.417-.893.523-1.289,0-1.289,0s-1.762-2-2.858-3.116a1.1,1.1,0,0,0-1.534-.256,1.122,1.122,0,0,0-.316.349s-4.545,5.594-6.053,7.465V98.792a2,2,0,0,1,2-2h15a2,2,0,0,1,2,2v11.483C240.633,108.772,237.73,105.594,237.241,105.1Z" fill="#fff"/>
    </g>
  </g>
</svg>
