<svg xmlns="http://www.w3.org/2000/svg" xmlns:xlink="http://www.w3.org/1999/xlink" width="134" height="39" viewBox="0 0 134 39">
  <defs>
    <clipPath id="clip-ifHover_autoSlideShow_1">
      <rect width="134" height="39"/>
    </clipPath>
  </defs>
  <g id="ifHover_autoSlideShow_1" data-name="ifHover_autoSlideShow – 1" clip-path="url(#clip-ifHover_autoSlideShow_1)">
    <path id="합치기_10" data-name="합치기 10" d="M-5982.5,38.42l-4.418-4.42H-6031a17,17,0,0,1-17-17,17,17,0,0,1,17-17h100a17,17,0,0,1,17,17,17,17,0,0,1-17,17h-44.25l-4.419,4.42a2,2,0,0,1-1.415.585A2,2,0,0,1-5982.5,38.42Z" transform="translate(-5914 39) rotate(180)" opacity="0.601"/>
    <path id="패스_175" data-name="패스 175" d="M24.392,16.28V11.208h5.536V9.736H17.048v1.472H22.5V16.28ZM29.4,7.032c-2.288-.208-4.912-1.856-4.912-3.984V2.312H22.5v.736c0,2.128-2.4,3.712-4.864,3.984l.8,1.536c2.16-.352,4.432-1.7,5.056-3.264.7,1.568,2.976,2.928,5.088,3.248ZM42.264,7.3V5.816H34.472V3.832h7.68v-1.5H32.6V7.3h3.76V8.68H30.888v1.488h12.88V8.68h-5.52V7.3Zm.032,6.3c0-1.616-1.808-2.656-4.976-2.656-3.136,0-4.944,1.04-4.944,2.656,0,1.648,1.808,2.672,4.96,2.672S42.3,15.256,42.3,13.608Zm-1.92.016c0,.736-1.2,1.168-3.056,1.168-1.84,0-3.024-.432-3.024-1.168S35.48,12.44,37.32,12.44C39.176,12.44,40.376,12.888,40.376,13.624Zm21.216-4.16V7.976H48.712V9.464ZM60.408,16.2V14.68H52.216v-.768H59.88V10.36H50.264v1.472h7.744V12.6H50.36v3.6ZM55.16,4.408c.752,1.536,3.2,2.736,5.088,3.008l.8-1.44C59,5.848,56.136,4.424,56.136,2.36V2.168H54.2V2.36c0,2.064-2.528,3.36-4.9,3.6l.768,1.44C52.136,7.1,54.408,5.992,55.16,4.408Zm15.808,8.144-.16-1.5a37.66,37.66,0,0,1-5.824.416v-2.9h4.624V3.224h-6.56V4.712h4.688V7.08H63.112V13h1.5A38.1,38.1,0,0,0,70.968,12.552Zm2.72-10.544H71.816V16.264h1.872V9.016h2V7.48h-2Zm14.48,14.256V2.008H86.312V16.264ZM76.792,8.088c0,2.992,1.36,5.072,3.68,5.072,2.336,0,3.7-2.1,3.7-5.072,0-3.008-1.36-5.1-3.7-5.1C78.152,2.984,76.792,5.08,76.792,8.088Zm5.584,0c0,2.24-.8,3.568-1.9,3.568-1.072,0-1.856-1.328-1.856-3.568,0-2.256.784-3.6,1.856-3.6C81.576,4.488,82.376,5.832,82.376,8.088ZM103.112,12.9H90.232v1.488h12.88ZM101.624,9.9V8.408H93.736v-3.7h7.76v-1.5H91.88V9.9Zm15.328,4.592V13.016h-3.216V9.976h-1.872v3.04H109.1V9.976h-1.872v3.04h-3.152v1.472ZM116.584,8.3c-2.176-.368-5.088-2.224-5.088-4.72V2.744h-1.952v.832c0,2.528-2.752,4.32-5.072,4.656.288.512.576,1.008.88,1.5,1.952-.4,4.416-1.888,5.152-3.808.816,1.9,3.184,3.376,5.136,3.808Z" transform="translate(0 13.086)" fill="#fff"/>
  </g>
</svg>
